# xmcd CD database file
#
# Track frame offsets:
#	150
#	9212
#	28717
#	55644
#	76166
#	99515
#	129857
#	158027
#	190469
#	221521
#	255153
#	283207
#
# Disc length: 4114 seconds
#
# Revision: 0
# Processed by: cddbd v1.5.1PL0 Copyright (c) Steve Scherf et al.
# Submitted via: CDex 1.50
#
DISCID=8f10100c
DTITLE=Santana - Sacred Fire
DYEAR=1900
DGENRE=Jazz
TTITLE0=Angels All Around Us
TTITLE1=Vive La Vida
TTITLE2=Esperando
TTITLE3=No One to Depend On
TTITLE4=Black Magic Woman
TTITLE5=Oye Como Va
TTITLE6=Samba Pa Ti
TTITLE7=Guajira
TTITLE8=Make Somebody Happy
TTITLE9=Toussaint l'Overture
TTITLE10=Soul Sacrifice - Don't Try This at Home
TTITLE11=Europa
EXTD=
EXTT0=
EXTT1=
EXTT2=
EXTT3=
EXTT4=
EXTT5=
EXTT6=
EXTT7=
EXTT8=
EXTT9=
EXTT10=
EXTT11=
PLAYORDER=
